<?xml version="1.0" encoding="UTF-8" standalone="no"?>
<!-- Created with Inkscape (http://www.inkscape.org/) -->

<svg
   xmlns:dc="http://purl.org/dc/elements/1.1/"
   xmlns:cc="http://creativecommons.org/ns#"
   xmlns:rdf="http://www.w3.org/1999/02/22-rdf-syntax-ns#"
   xmlns:svg="http://www.w3.org/2000/svg"
   xmlns="http://www.w3.org/2000/svg"
   xmlns:sodipodi="http://sodipodi.sourceforge.net/DTD/sodipodi-0.dtd"
   xmlns:inkscape="http://www.inkscape.org/namespaces/inkscape"
   width="210mm"
   height="297mm"
   viewBox="0 0 210 297"
   version="1.1"
   id="svg8"
   inkscape:version="0.92.2 (5c3e80d, 2017-08-06)"
   sodipodi:docname="JCMB_Vector.svg">
  <defs
     id="defs2">
    <clipPath
       clipPathUnits="userSpaceOnUse"
       id="clipPath1698">
      <rect
         style="opacity:0.997;fill:#3db6fb;fill-opacity:0.54040402;stroke:none;stroke-width:2.60620093;stroke-linecap:round;stroke-linejoin:round;stroke-miterlimit:4;stroke-dasharray:none;stroke-opacity:1"
         id="rect1700"
         width="403.68149"
         height="221.87074"
         x="-716.38263"
         y="-391.71359" />
    </clipPath>
    <clipPath
       clipPathUnits="userSpaceOnUse"
       id="clipPath1704">
      <rect
         style="opacity:0.997;fill:#3db6fb;fill-opacity:0.54040402;stroke:none;stroke-width:1.03399992;stroke-linecap:round;stroke-linejoin:round;stroke-miterlimit:4;stroke-dasharray:none;stroke-opacity:1"
         id="rect1706"
         width="587.54663"
         height="297.36841"
         x="-797.0163"
         y="-369.62927" />
    </clipPath>
  </defs>
  <sodipodi:namedview
     id="base"
     pagecolor="#ffffff"
     bordercolor="#666666"
     borderopacity="1.0"
     inkscape:pageopacity="0.0"
     inkscape:pageshadow="2"
     inkscape:zoom="0.2801873"
     inkscape:cx="-1735.7241"
     inkscape:cy="3619.1202"
     inkscape:document-units="mm"
     inkscape:current-layer="g1331"
     showgrid="false"
     inkscape:snap-global="true"
     showguides="true"
     inkscape:guide-bbox="true"
     inkscape:window-width="1920"
     inkscape:window-height="1017"
     inkscape:window-x="1912"
     inkscape:window-y="-8"
     inkscape:window-maximized="1"
     inkscape:lockguides="true">
    <sodipodi:guide
       position="101.19231,138.88377"
       orientation="0,1"
       id="guide996"
       inkscape:locked="true" />
    <sodipodi:guide
       position="107.52291,111.61347"
       orientation="0,1"
       id="guide998"
       inkscape:locked="true" />
    <sodipodi:guide
       position="97.199156,124.07989"
       orientation="0,1"
       id="guide1002"
       inkscape:locked="true" />
    <sodipodi:guide
       position="-43.917976,430.56839"
       orientation="1,0"
       id="guide1061"
       inkscape:locked="true" />
    <sodipodi:guide
       position="-513.59028,684.78704"
       orientation="1,0"
       id="guide1105"
       inkscape:locked="true" />
  </sodipodi:namedview>
  <metadata
     id="metadata5">
    <rdf:RDF>
      <cc:Work
         rdf:about="">
        <dc:format>image/svg+xml</dc:format>
        <dc:type
           rdf:resource="http://purl.org/dc/dcmitype/StillImage" />
        <dc:title></dc:title>
      </cc:Work>
    </rdf:RDF>
  </metadata>
  <g
     inkscape:label="Layer 1"
     inkscape:groupmode="layer"
     id="layer1">
    <g
       id="g1518"
       transform="matrix(1.6860319,0,0,1.3092757,249.42154,111.57579)"
       inkscape:export-filename="D:\Internet Business\JCMoneyBusiness\images\back2.png"
       inkscape:export-xdpi="164.25"
       inkscape:export-ydpi="164.25">
      <path
         inkscape:connector-curvature="0"
         id="path1442"
         d="m -342.98145,-355.31111 c 0,0 -71.46876,-10.7642 -77.38657,36.16775 -5.91779,46.93195 30.0442,-19.37557 38.69328,-1.72228 8.64909,17.65332 -6.82821,52.52934 -24.12641,53.82107 -17.29817,1.29169 -29.13373,28.84806 -10.92513,49.94592 18.20859,21.09785 65.55096,-101.18357 65.09574,-37.45945 -0.45521,63.72412 8.64909,55.97389 10.01472,34.44547 1.36564,-21.52842 43.24543,-121.4203 -1.36563,-135.19848 z"
         style="fill:#dcfd83;fill-opacity:1;stroke:none;stroke-width:0.27205059px;stroke-linecap:butt;stroke-linejoin:miter;stroke-opacity:1" />
      <path
         inkscape:connector-curvature="0"
         id="path1442-8"
         d="m -344.19772,-357.82303 c 0,0 -65.218,-10.7642 -70.61823,36.16775 -5.40021,46.93195 27.4165,-19.37557 35.30911,-1.72228 7.89264,17.65332 -6.23099,52.52934 -22.01628,53.82107 -15.78524,1.29169 -26.58565,28.84807 -9.9696,49.94593 16.61604,21.09785 59.81777,-101.18358 59.40238,-37.45945 -0.4154,63.72412 7.89262,55.97389 9.13882,34.44547 1.24619,-21.52843 39.46311,-121.42031 -1.2462,-135.19849 z"
         style="fill:#83fd92;fill-opacity:1;stroke:none;stroke-width:0.25988144px;stroke-linecap:butt;stroke-linejoin:miter;stroke-opacity:1" />
      <path
         inkscape:connector-curvature="0"
         id="path1442-8-8"
         d="m -338.81561,-362.12872 c 0,0 -65.218,-10.7642 -70.61823,36.16775 -5.40021,46.93195 27.4165,-19.37557 35.30911,-1.72228 7.89264,17.65332 -6.23099,52.52934 -22.01628,53.82107 -15.78524,1.29169 -26.58565,28.84808 -9.9696,49.94594 16.61604,21.09785 59.81777,-101.18359 59.40238,-37.45946 -0.4154,63.72412 7.89262,55.9739 9.13882,34.44548 1.24619,-21.52844 39.46311,-121.42032 -1.2462,-135.1985 z"
         style="fill:#8af8fb;fill-opacity:1;stroke:none;stroke-width:0.25988144px;stroke-linecap:butt;stroke-linejoin:miter;stroke-opacity:1" />
      <path
         inkscape:connector-curvature="0"
         id="path1442-8-8-0"
         d="m -337.36746,-362.20117 c 0,0 -58.66958,-10.03155 -63.52758,33.70605 -4.85798,43.7376 24.66366,-18.0568 31.76379,-1.60506 7.10015,16.45178 -5.60535,48.95402 -19.80567,50.15784 -14.20027,1.20377 -23.91623,26.88457 -8.96857,46.54645 14.94766,19.66185 53.81157,-94.29669 53.4379,-34.90985 -0.37369,59.38683 7.10013,52.16412 8.2212,32.10101 1.12107,-20.06315 35.50068,-113.15605 -1.12107,-125.99644 z"
         style="fill:#8a98fb;fill-opacity:1;stroke:none;stroke-width:0.23795299px;stroke-linecap:butt;stroke-linejoin:miter;stroke-opacity:1" />
      <path
         inkscape:connector-curvature="0"
         id="path1442-8-8-0-1"
         d="m -334.36066,-366.98874 c 0,0 -55.69302,-9.51259 -60.30456,31.96235 -4.61151,41.47493 23.41237,-17.12268 30.15228,-1.52203 6.73993,15.60069 -5.32097,46.4215 -18.80084,47.56304 -13.47983,1.1415 -22.70286,25.49377 -8.51356,44.13849 14.1893,18.64469 51.08148,-89.41848 50.72677,-33.10388 -0.35473,56.3146 6.73991,49.46554 7.8041,30.44035 1.0642,-19.02523 33.69958,-107.3022 -1.06419,-119.47832 z"
         style="fill:#fb8ae3;fill-opacity:1;stroke:none;stroke-width:0.22576182px;stroke-linecap:butt;stroke-linejoin:miter;stroke-opacity:1" />
    </g>
    <g
       id="g1317"
       transform="matrix(1.1834688,0,0,1.3092757,447.12831,227.141)"
       inkscape:export-filename="D:\Internet Business\JCMoneyBusiness\images\back2.png"
       inkscape:export-xdpi="164.25"
       inkscape:export-ydpi="164.25">
      <g
         transform="matrix(2.7401007,0,0,1.4006849,2011.7496,148.70983)"
         id="g1222">
        <g
           transform="translate(-2.3350291,-124.0037)"
           id="g1259">
          <path
             inkscape:connector-curvature="0"
             id="path1187"
             d="m -1013.558,-239.05765 c 0,0 -37.4594,20.23671 -46.5014,-26.26465 -9.0419,-46.5014 -52.0988,76.21058 -52.0988,76.21058 0,0 74.919,5.16683 62.0019,-18.08385 -12.9171,-23.25071 36.1677,-8.61137 36.1677,-19.3756 0,-10.7642 0.4306,-12.48648 0.4306,-12.48648 z"
             style="fill:#02ba6c;fill-opacity:1;stroke:none;stroke-width:0.26458332px;stroke-linecap:butt;stroke-linejoin:miter;stroke-opacity:1" />
          <path
             inkscape:connector-curvature="0"
             id="path1187-9"
             d="m -1022.3845,-234.51175 c 0,0 -33.8608,18.43853 -42.034,-23.93083 -8.1733,-42.36939 -47.0937,69.43869 -47.0937,69.43869 0,0 67.7215,4.70771 56.0453,-16.47697 -11.6761,-21.1847 32.6932,-7.84618 32.6932,-17.65392 0,-9.80772 0.3892,-11.37697 0.3892,-11.37697 z"
             style="fill:#02ebc1;fill-opacity:1;stroke:none;stroke-width:0.24011706px;stroke-linecap:butt;stroke-linejoin:miter;stroke-opacity:1" />
          <path
             inkscape:connector-curvature="0"
             id="path1187-9-3"
             d="m -1026.2598,-226.67932 c 0,0 -33.0428,15.64135 -41.0186,-20.30045 -7.9758,-35.94183 -45.9561,58.90463 -45.9561,58.90463 0,0 66.0857,3.99354 54.6915,-13.97735 -11.394,-17.97093 31.9034,-6.6559 31.9034,-14.97579 0,-8.31985 0.3798,-9.65104 0.3798,-9.65104 z"
             style="fill:#014a3d;fill-opacity:1;stroke:none;stroke-width:0.21846783px;stroke-linecap:butt;stroke-linejoin:miter;stroke-opacity:1" />
          <path
             inkscape:connector-curvature="0"
             id="path1187-9-3-4"
             d="m -1037.2027,-216.47136 c 0,0 -28.9399,11.54548 -35.9254,-14.98453 -6.9854,-26.53004 -40.2498,43.47976 -40.2498,43.47976 0,0 57.88,2.94778 47.9006,-10.31722 -9.9793,-13.26503 27.9419,-4.91297 27.9419,-11.0542 0,-6.1412 0.3327,-7.12381 0.3327,-7.12381 z"
             style="fill:#e5ff52;fill-opacity:1;stroke:none;stroke-width:0.17565747px;stroke-linecap:butt;stroke-linejoin:miter;stroke-opacity:1" />
          <path
             inkscape:connector-curvature="0"
             id="path1187-9-3-4-1"
             d="m -1043.7699,-212.63566 c 0,0 -26.0568,9.74729 -32.3464,-12.65072 -6.2895,-22.39803 -36.24,36.70787 -36.24,36.70787 0,0 52.1138,2.48866 43.1285,-8.71034 -8.985,-11.19902 25.1583,-4.14778 25.1583,-9.33252 0,-5.18472 0.2996,-6.01429 0.2996,-6.01429 z"
             style="fill:#f1adde;fill-opacity:1;stroke:none;stroke-width:0.15314919px;stroke-linecap:butt;stroke-linejoin:miter;stroke-opacity:1" />
        </g>
      </g>
      <path
         inkscape:connector-curvature="0"
         id="path1119"
         d="m -1042.3668,-286.85074 c 54.24612,-54.88124 74.87507,0.60308 56.53821,-59.70598 -18.33661,-60.30906 18.33686,-67.54613 18.33686,-67.54613 0,0 160.44662,-63.92762 51.95411,19.902 -108.49248,83.82956 42.78576,59.10286 67.23481,16.8865 24.44899,-42.21632 8.40435,-71.76776 8.40435,-71.76776 0,0 -13.75257,-12.66492 -12.2245,-10.25255 1.52807,2.41237 -190.24384,-1.20619 -190.24384,-1.20619 z"
         style="fill:#026beb;fill-opacity:1;stroke:none;stroke-width:0.41712606px;stroke-linecap:butt;stroke-linejoin:miter;stroke-opacity:1" />
      <path
         inkscape:connector-curvature="0"
         id="path1119-5"
         d="m -1042.3668,-296.5002 c 52.8489,-51.83227 72.9464,0.56958 55.08207,-56.38898 -17.86447,-56.95854 17.86433,-63.79355 17.86433,-63.79355 0,0 156.31406,-60.37609 50.61608,18.79632 -105.69798,79.17237 41.68371,55.81938 65.50297,15.94836 23.81931,-39.87096 8.1878,-67.78066 8.1878,-67.78066 0,0 -13.39828,-11.96132 -11.90948,-9.68296 1.48865,2.27834 -185.34377,-1.13918 -185.34377,-1.13918 z"
         style="fill:#02b6f0;fill-opacity:1;stroke:none;stroke-width:0.40011889px;stroke-linecap:butt;stroke-linejoin:miter;stroke-opacity:1" />
      <path
         inkscape:connector-curvature="0"
         id="path1119-5-3"
         d="m -1043.4231,-306.75273 c 50.85275,-48.78332 70.19113,0.53607 53.00164,-53.072 -17.18984,-53.60803 17.18949,-60.04099 17.18949,-60.04099 0,0 150.41032,-56.82455 48.70448,17.69067 -101.70581,74.51516 40.10934,52.53588 63.02896,15.01021 22.91967,-37.5256 7.87855,-63.79356 7.87855,-63.79356 0,0 -12.89223,-11.25771 -11.45965,-9.11337 1.43241,2.14432 -178.34347,-1.07217 -178.34347,-1.07217 z"
         style="fill:#fde117;fill-opacity:1;stroke:none;stroke-width:0.38077125px;stroke-linecap:butt;stroke-linejoin:miter;stroke-opacity:1" />
      <g
         transform="matrix(1.9702522,-0.02497362,0.05018392,0.98048002,928.41679,-32.684567)"
         id="g1284">
        <path
           style="fill:#fdaf17;fill-opacity:1;stroke:none;stroke-width:0.22386098px;stroke-linecap:butt;stroke-linejoin:miter;stroke-opacity:1"
           d="m -854.95646,-281.25336 c 0,0 -48.41924,-11.88191 -47.46985,-75.4852 0.9494,-63.60328 48.60916,23.76386 48.60916,23.76386 z"
           id="path1155"
           inkscape:connector-curvature="0" />
        <path
           style="fill:#02b6f0;fill-opacity:1;stroke:none;stroke-width:0.19368942px;stroke-linecap:butt;stroke-linejoin:miter;stroke-opacity:1"
           d="m -859.54235,-288.8062 c 0,0 -41.29171,-10.43028 -40.48203,-66.26308 0.80963,-55.83278 41.45371,20.8606 41.45371,20.8606 z"
           id="path1155-1"
           inkscape:connector-curvature="0" />
        <path
           style="fill:#026beb;fill-opacity:1;stroke:none;stroke-width:0.18692704px;stroke-linecap:butt;stroke-linejoin:miter;stroke-opacity:1"
           d="m -859.19363,-286.2605 c 0,0 -39.04097,-10.27475 -38.27542,-65.27499 0.76555,-55.00023 39.19408,20.54953 39.19408,20.54953 z"
           id="path1155-1-2"
           inkscape:connector-curvature="0" />
        <path
           style="fill:#003a6c;fill-opacity:1;stroke:none;stroke-width:0.16029312px;stroke-linecap:butt;stroke-linejoin:miter;stroke-opacity:1"
           d="m -863.14832,-292.29772 c 0,0 -32.66373,-9.03049 -32.02322,-57.37032 0.6405,-48.3398 32.79183,18.06102 32.79183,18.06102 z"
           id="path1155-1-2-3"
           inkscape:connector-curvature="0" />
      </g>
      <path
         inkscape:connector-curvature="0"
         id="path1119-5-3-5"
         d="m -1043.4231,-317.60836 c 47.45956,-45.92493 65.50741,0.50465 49.46511,-49.96232 -16.04301,-50.46693 16.0423,-56.52296 16.0423,-56.52296 0,0 140.37373,-53.495 45.45455,16.6541 -94.91916,70.14905 37.43292,49.45761 58.82314,14.13071 21.39028,-35.32684 7.35283,-60.05565 7.35283,-60.05565 0,0 -12.03195,-10.59809 -10.69497,-8.57939 1.33683,2.01868 -166.44296,-1.00935 -166.44296,-1.00935 z"
         style="fill:#edafff;fill-opacity:1;stroke:none;stroke-width:0.35690838px;stroke-linecap:butt;stroke-linejoin:miter;stroke-opacity:1" />
    </g>
    <rect
       style="opacity:0.997;fill:#9bfc76;fill-opacity:1;stroke:none;stroke-width:1.03399992;stroke-linecap:round;stroke-linejoin:round;stroke-miterlimit:4;stroke-dasharray:none;stroke-opacity:1"
       id="rect1261"
       width="153.71292"
       height="124.43427"
       x="-1254.2458"
       y="-304.50403" />
    <path
       style="fill:#288704;fill-opacity:1;stroke:none;stroke-width:0.28709587px;stroke-linecap:butt;stroke-linejoin:miter;stroke-opacity:1"
       d="m -1009.4564,-242.50218 c 0,0 -53.7375,-3.01398 -83.1409,24.11182 -29.4036,27.1258 109.50265,27.55638 109.50265,27.55638 0,0 54.24439,-127.44825 -26.36175,-51.6682 z"
       id="path1263"
       inkscape:connector-curvature="0" />
    <path
       style="fill:#2d19fd;fill-opacity:0.7979798;stroke:none;stroke-width:0.26026112px;stroke-linecap:butt;stroke-linejoin:miter;stroke-opacity:1"
       d="m 59.643878,185.36277 13.566978,-12.26105 13.771036,12.33826 z"
       id="path975"
       inkscape:connector-curvature="0"
       inkscape:export-filename="D:\Internet Business\JCMoneyBusiness\images\jcmb_draft1.png"
       inkscape:export-xdpi="207.95"
       inkscape:export-ydpi="207.95" />
    <rect
       style="opacity:0.997;fill:none;fill-opacity:1;stroke:#000000;stroke-width:1.03399992;stroke-linecap:round;stroke-linejoin:round;stroke-miterlimit:4;stroke-dasharray:none;stroke-opacity:1"
       id="rect815"
       width="124.47807"
       height="109.35457"
       x="49.558563"
       y="97.369736" />
    <path
       style="fill:#3046ae;fill-opacity:0.8;stroke:none;stroke-width:0.26458332px;stroke-linecap:butt;stroke-linejoin:miter;stroke-opacity:1"
       d="m 59.643879,166.76585 20.040573,18.59433 H 59.643879 Z"
       id="path943"
       inkscape:connector-curvature="0"
       inkscape:export-filename="D:\Internet Business\JCMoneyBusiness\images\jcmb_draft1.png"
       inkscape:export-xdpi="207.95"
       inkscape:export-ydpi="207.95" />
    <path
       style="fill:#3047ae;fill-opacity:0.7979798;stroke:none;stroke-width:0.26458323px;stroke-linecap:butt;stroke-linejoin:miter;stroke-opacity:1"
       d="M 86.981892,166.84565 66.941343,185.43998 H 86.981892 Z"
       id="path943-8"
       inkscape:connector-curvature="0"
       inkscape:export-filename="D:\Internet Business\JCMoneyBusiness\images\jcmb_draft1.png"
       inkscape:export-xdpi="207.95"
       inkscape:export-ydpi="207.95" />
    <path
       style="fill:#29b53f;fill-opacity:0.7979798;stroke:none;stroke-width:0.28433937px;stroke-linecap:butt;stroke-linejoin:miter;stroke-opacity:1"
       d="m 59.643878,158.46704 13.566978,14.63468 13.771036,-14.72683 z"
       id="path975-1"
       inkscape:connector-curvature="0"
       inkscape:export-filename="D:\Internet Business\JCMoneyBusiness\images\jcmb_draft1.png"
       inkscape:export-xdpi="207.95"
       inkscape:export-ydpi="207.95" />
    <text
       xml:space="preserve"
       style="font-style:normal;font-variant:normal;font-weight:normal;font-stretch:normal;font-size:26.78732872px;line-height:1.25;font-family:'Gill Sans MT';-inkscape-font-specification:'Gill Sans MT, Normal';font-variant-ligatures:normal;font-variant-caps:normal;font-variant-numeric:normal;font-feature-settings:normal;text-align:start;letter-spacing:0px;word-spacing:0px;writing-mode:lr-tb;text-anchor:start;fill:#0b007c;fill-opacity:0.8;stroke:none;stroke-width:0.23361042"
       x="102.27774"
       y="176.59779"
       id="text994"
       transform="scale(0.97467385,1.0259842)"
       inkscape:export-filename="D:\Internet Business\JCMoneyBusiness\images\jcmb_draft1.png"
       inkscape:export-xdpi="207.95"
       inkscape:export-ydpi="207.95"><tspan
         sodipodi:role="line"
         id="tspan992"
         x="102.27774"
         y="176.59779"
         style="font-style:normal;font-variant:normal;font-weight:normal;font-stretch:normal;font-size:26.78732872px;font-family:'Gill Sans MT';-inkscape-font-specification:'Gill Sans MT, Normal';font-variant-ligatures:normal;font-variant-caps:normal;font-variant-numeric:normal;font-feature-settings:normal;text-align:start;writing-mode:lr-tb;text-anchor:start;fill:#0b007c;fill-opacity:0.8;stroke-width:0.23361042">JCMB<tspan
   style="font-style:normal;font-variant:normal;font-weight:normal;font-stretch:normal;font-size:26.78732872px;font-family:'Gill Sans MT';-inkscape-font-specification:'Gill Sans MT, Normal';font-variant-ligatures:normal;font-variant-caps:normal;font-variant-numeric:normal;font-feature-settings:normal;text-align:start;writing-mode:lr-tb;text-anchor:start;fill:#2ab440;fill-opacity:0.8;stroke-width:0.23361042"
   id="tspan1000">.</tspan></tspan></text>
    <g
       id="g1331"
       transform="translate(69.321511,-403.44258)"
       inkscape:export-filename="D:\Internet Business\JCMoneyBusiness\images\front.png"
       inkscape:export-xdpi="164.25"
       inkscape:export-ydpi="164.25">
      <g
         transform="translate(17.36954,68.754071)"
         style="fill:#fb5a3d;fill-opacity:1"
         inkscape:export-ydpi="205.45"
         inkscape:export-xdpi="205.45"
         inkscape:export-filename="D:\Internet Business\JCMoneyBusiness\images\front.png"
         id="g1115"
         clip-path="url(#clipPath1704)">
        <g
           inkscape:export-ydpi="207.95"
           inkscape:export-xdpi="207.95"
           inkscape:export-filename="D:\Internet Business\JCMoneyBusiness\images\Placeholder_1.png"
           style="fill:#fb5a3d;fill-opacity:1"
           id="g1099"
           transform="translate(-64.886138,-30.426833)">
          <g
             style="fill:#fb5a3d;fill-opacity:1"
             transform="translate(-108.51015,-20.528948)"
             id="g1090">
            <path
               style="opacity:0.997;fill:#fb5a3d;fill-opacity:1;stroke:none;stroke-width:1.16682673;stroke-linecap:round;stroke-linejoin:round;stroke-miterlimit:4;stroke-dasharray:none;stroke-opacity:1"
               d="m -281.83359,-253.16168 v 20.55171 h 8.02225 c 1.11307,0 2.13637,-0.024 3.06958,-0.0724 0.93322,-0.0483 1.77621,-0.1209 2.52957,-0.21755 0.75335,-0.0967 1.41707,-0.2178 1.99057,-0.36277 0.5735,-0.14498 1.05691,-0.31365 1.45056,-0.50695 0.40043,-0.20103 0.78027,-0.42956 1.13998,-0.68471 0.35971,-0.25515 0.69904,-0.53718 1.01803,-0.84646 0.31898,-0.30928 0.6178,-0.64532 0.89607,-1.00872 0.27826,-0.3634 0.53605,-0.75398 0.77359,-1.17151 0.24433,-0.41752 0.45806,-0.8429 0.64131,-1.27589 0.18325,-0.43299 0.3362,-0.87395 0.45837,-1.3224 0.12216,-0.44845 0.21383,-0.90447 0.27492,-1.36839 0.0611,-0.46392 0.0915,-0.93552 0.0915,-1.4149 0,-0.49484 -0.0322,-0.97904 -0.0966,-1.45263 -0.0645,-0.47358 -0.16095,-0.93674 -0.28991,-1.38906 -0.12895,-0.45232 -0.29026,-0.89393 -0.48369,-1.32498 -0.19343,-0.43106 -0.41905,-0.85111 -0.67696,-1.26091 -0.25112,-0.40979 -0.52968,-0.79375 -0.83509,-1.15135 -0.30542,-0.3576 -0.63764,-0.68884 -0.99736,-0.99425 -0.35971,-0.30541 -0.74664,-0.58497 -1.16065,-0.8382 -0.41401,-0.25322 -0.85513,-0.48006 -1.32343,-0.68109 -0.4683,-0.20103 -1.00465,-0.37736 -1.60869,-0.52813 -0.60404,-0.15078 -1.27611,-0.27621 -2.0159,-0.37673 -0.73978,-0.10051 -1.54707,-0.17608 -2.42259,-0.22634 -0.87552,-0.0503 -1.81905,-0.0754 -2.83032,-0.0754 z"
               id="path1074"
               inkscape:connector-curvature="0" />
            <path
               style="opacity:0.997;fill:#fb5a3d;fill-opacity:1;stroke:none;stroke-width:1.16682673;stroke-linecap:round;stroke-linejoin:round;stroke-miterlimit:4;stroke-dasharray:none;stroke-opacity:1"
               d="m -281.83359,-280.90366 v 19.4846 h 5.41621 c 1.08592,0 2.09288,-0.0588 3.02101,-0.17673 0.92812,-0.11792 1.77732,-0.2949 2.54764,-0.53072 0.77033,-0.23583 1.46177,-0.53097 2.0743,-0.8847 0.30626,-0.17687 0.59256,-0.3683 0.85937,-0.57464 0.26682,-0.20635 0.5142,-0.42719 0.74156,-0.66301 0.46152,-0.47165 0.86516,-0.97805 1.2113,-1.51929 0.34613,-0.54124 0.6343,-1.11775 0.86506,-1.72858 0.23076,-0.61082 0.40397,-1.25642 0.51935,-1.93683 0.11538,-0.68041 0.17311,-1.39561 0.17311,-2.14561 0,-0.77705 -0.0542,-1.50546 -0.16278,-2.18539 -0.10859,-0.67993 -0.27167,-1.31115 -0.48886,-1.89394 -0.21718,-0.5828 -0.48864,-1.11683 -0.81441,-1.60249 -0.32578,-0.48566 -0.70562,-0.92302 -1.13999,-1.31155 -0.43436,-0.38852 -0.9231,-0.72818 -1.46606,-1.01957 -0.54296,-0.2914 -1.14007,-0.53438 -1.79162,-0.72864 -0.65155,-0.19427 -1.35756,-0.34005 -2.1177,-0.43718 -0.76014,-0.0971 -1.57453,-0.14573 -2.44326,-0.14573 z"
               id="path1072"
               inkscape:connector-curvature="0" />
            <path
               inkscape:connector-curvature="0"
               style="opacity:0.997;fill:#fb5a3d;fill-opacity:1;stroke:none;stroke-width:4.41005373;stroke-linecap:round;stroke-linejoin:round;stroke-miterlimit:4;stroke-dasharray:none;stroke-opacity:1"
               d="m -1997.2266,-1372.4082 v 877.09375 h 1419.97465 v -877.09375 z m 539.25,276.3574 c 2.8217,0 5.6838,0.1063 8.584,0.3164 2.9002,0.2102 5.8396,0.5252 8.8184,0.9453 2.9788,0.4201 5.9973,0.9441 9.0547,1.5743 3.0573,0.6301 6.1531,1.3649 9.289,2.205 3.1359,0.8402 6.3109,1.7858 9.5254,2.836 3.2145,1.0502 6.4687,2.2065 9.7617,3.4668 6.5861,2.5205 13.3302,5.4596 20.2305,8.8203 v 37.6992 c -3.1423,-2.0456 -6.2757,-3.964 -9.4004,-5.7539 -3.1247,-1.7899 -6.2406,-3.4521 -9.3476,-4.9863 -3.1071,-1.5343 -6.2055,-2.9403 -9.295,-4.2188 -3.0894,-1.2785 -6.1703,-2.4303 -9.2421,-3.4531 -3.0718,-1.0228 -6.1354,-1.9165 -9.1895,-2.6836 -3.0542,-0.7671 -6.1002,-1.4066 -9.1367,-1.918 -3.0365,-0.5114 -6.0632,-0.8947 -9.082,-1.1504 -3.0189,-0.2558 -6.0301,-0.3847 -9.0313,-0.3847 -3.0782,0 -6.0907,0.1402 -9.0391,0.4179 -2.9483,0.2775 -5.8319,0.6929 -8.6504,1.2481 -2.8185,0.5552 -5.5711,1.2492 -8.2597,2.082 -2.6886,0.8329 -5.3124,1.8056 -7.8711,2.916 -2.5588,1.1105 -5.0536,2.36 -7.4824,3.7481 -2.4289,1.3881 -4.7928,2.9143 -7.0918,4.5801 -2.299,1.6657 -4.5321,3.4707 -6.7012,5.414 -2.1692,1.9433 -4.2732,4.0252 -6.3125,6.2461 -2.0265,2.2064 -3.928,4.4831 -5.7012,6.8301 -1.7731,2.347 -3.4196,4.7643 -4.9394,7.2519 -1.5199,2.4877 -2.9132,5.0456 -4.1797,7.6739 -1.2666,2.6282 -2.4067,5.3268 -3.4199,8.0957 -1.0133,2.7689 -1.8983,5.608 -2.6582,8.51756 -0.76,2.90951 -1.3938,5.8893 -1.9004,8.93945 -0.5066,3.05012 -0.8874,6.17054 -1.1407,9.36133 -0.2532,3.19079 -0.3789,6.45177 -0.3789,9.7832 0,3.36064 0.1252,6.64652 0.375,9.85742 0.2502,3.21086 0.6248,6.34709 1.125,9.40821 0.5002,3.06111 1.1267,6.04765 1.877,8.95898 0.7503,2.91133 1.6246,5.74626 2.625,8.50781 1.0004,2.76159 2.1264,5.44874 3.3769,8.06055 1.2506,2.6118 2.6264,5.14931 4.127,7.61133 1.5006,2.46206 3.1262,4.84983 4.877,7.16211 1.7507,2.31227 3.6261,4.54844 5.6269,6.71093 2.0008,2.1625 4.0706,4.18985 6.2109,6.08204 2.1404,1.89222 4.3511,3.64961 6.6309,5.27148 2.2798,1.62187 4.6296,3.10938 7.0488,4.46094 2.4193,1.35156 4.9081,2.56715 7.4668,3.64844 2.5588,1.08124 5.1865,2.02691 7.8848,2.83789 2.6982,0.81093 5.467,1.48668 8.3047,2.02734 2.8377,0.54062 5.7454,0.94648 8.7226,1.2168 2.9772,0.27023 6.024,0.40625 9.1407,0.40625 3.2577,0 6.5056,-0.14288 9.7441,-0.42774 3.2385,-0.28497 6.4682,-0.71336 9.6875,-1.2832 3.2193,-0.56984 6.4289,-1.28194 9.6289,-2.13672 3.2,-0.85478 6.3895,-1.85251 9.5703,-2.99219 3.1808,-1.13971 6.3521,-2.42108 9.5137,-3.8457 3.1616,-1.42462 6.3128,-2.99162 9.4551,-4.70117 3.1423,-1.70956 6.2753,-3.56215 9.3984,-5.55664 3.1231,-1.99446 6.2379,-4.13076 9.3418,-6.41016 v 38.57422 c -2.8217,1.75336 -5.6982,3.39742 -8.6289,4.93164 -2.9307,1.53419 -5.9173,2.95839 -8.957,4.27344 -3.0398,1.31501 -6.1326,2.52131 -9.2813,3.61718 -3.1487,1.09584 -6.3516,2.08233 -9.6094,2.95899 -3.2577,0.8767 -6.5707,1.64326 -9.9375,2.30078 -3.3667,0.65753 -6.7878,1.20618 -10.2636,1.64453 -3.4758,0.43835 -7.007,0.76716 -10.5918,0.98633 -3.5848,0.21921 -7.2242,0.32813 -10.918,0.32813 -3.0012,0 -5.9446,-0.0862 -8.832,-0.25782 -2.8874,-0.17159 -5.7186,-0.43006 -8.4922,-0.77344 -2.7736,-0.34355 -5.4906,-0.77207 -8.1504,-1.2871 -2.6597,-0.51508 -5.2627,-1.116 -7.8086,-1.80274 -2.5459,-0.68674 -5.0347,-1.45796 -7.4668,-2.3164 -2.4321,-0.85841 -4.8067,-1.80388 -7.125,-2.83399 -2.3182,-1.03011 -4.5807,-2.14584 -6.7852,-3.34766 -2.2044,-1.20177 -4.3508,-2.4898 -6.4414,-3.86328 -2.0906,-1.37348 -4.1278,-2.81129 -6.1093,-4.31445 -1.9816,-1.50316 -3.9087,-3.07029 -5.7813,-4.70312 -1.8726,-1.63284 -3.6896,-3.33125 -5.4531,-5.09376 -1.7636,-1.7625 -3.4724,-3.59023 -5.127,-5.48242 -3.309,-3.7844 -6.4004,-7.82775 -9.2734,-12.13086 -2.873,-4.30306 -5.528,-8.86569 -7.9648,-13.6875 -2.437,-4.8218 -4.5689,-9.74269 -6.3965,-14.76172 -1.8277,-5.01906 -3.3519,-10.1372 -4.5703,-15.35351 -1.2185,-5.21632 -2.1311,-10.52979 -2.7403,-15.94336 -0.6092,-5.41357 -0.914,-10.92629 -0.914,-16.53711 0,-4.45652 0.1734,-8.82418 0.5214,-13.10352 0.3481,-4.27937 0.8706,-8.47011 1.5665,-12.57226 0.6958,-4.10219 1.5656,-8.11596 2.6093,-12.04106 1.0437,-3.925 2.2607,-7.7619 3.6524,-11.5097 1.3916,-3.7479 2.9577,-7.4079 4.6972,-10.9785 1.7395,-3.5707 3.6529,-7.0518 5.7403,-10.4453 2.0874,-3.3936 4.3479,-6.6978 6.7832,-9.9141 2.4353,-3.2164 5.0449,-6.3455 7.8281,-9.3848 2.796,-3.0391 5.6729,-5.8876 8.6309,-8.5469 2.9579,-2.6593 5.9973,-5.1288 9.1171,-7.4082 3.1199,-2.2794 6.3198,-4.368 9.6016,-6.2675 3.2818,-1.8995 6.6442,-3.6093 10.0879,-5.1289 3.4438,-1.5196 6.9685,-2.8506 10.5742,-3.9903 3.6057,-1.1397 7.293,-2.0878 11.0606,-2.8476 3.7675,-0.7598 7.6154,-1.3311 11.5449,-1.711 3.9295,-0.3799 7.9398,-0.5703 12.0312,-0.5703 z m -186.2304,3.1563 h 30.7832 v 241.79294 c 0,5.64004 -0.1282,10.91034 -0.3848,15.8125 -0.2566,4.90216 -0.6413,9.43532 -1.1543,13.59961 -0.513,4.16428 -1.1543,7.96031 -1.9238,11.38672 -0.7696,3.42636 -1.6693,6.48334 -2.6953,9.17187 -1.0005,2.71775 -2.1561,5.29623 -3.4707,7.73633 -1.3147,2.44014 -2.7871,4.74176 -4.4161,6.9043 -1.6288,2.16249 -3.4143,4.18542 -5.3574,6.07031 -1.9431,1.88489 -4.0434,3.631 -6.3008,5.23828 -2.2573,1.6365 -4.6309,3.06951 -7.1191,4.29687 -2.4882,1.22737 -5.0915,2.25013 -7.8105,3.06836 -2.7191,0.81823 -5.554,1.43267 -8.5039,1.8418 -2.95,0.4091 -6.0145,0.61328 -9.1954,0.61328 -1.9495,0 -5.284,-0.35152 -10.0039,-1.05273 l -5.6953,-32.61328 h 7.8496 c 2.2061,0 4.2796,-0.077 6.2227,-0.23047 1.9431,-0.15345 3.7553,-0.38263 5.4355,-0.68946 1.6802,-0.30689 3.2293,-0.69012 4.6465,-1.15039 1.4173,-0.46023 2.7031,-0.99764 3.8574,-1.61132 1.18,-0.61369 2.296,-1.34393 3.3477,-2.19141 1.0517,-0.84745 2.0394,-1.81133 2.9629,-2.89258 0.9234,-1.08128 1.7829,-2.28065 2.5781,-3.5957 0.7952,-1.31501 1.5264,-2.74611 2.1934,-4.29492 0.6926,-1.54882 1.2969,-3.533 1.8164,-5.95118 0.5194,-2.41821 0.9525,-5.27101 1.2988,-8.55859 0.3462,-3.28762 0.6062,-7.00906 0.7793,-11.16602 0.1731,-4.15698 0.2598,-8.74899 0.2598,-13.77539 z m 301.3554,0 h 28.9356 l 71.5683,100.6445 71.2598,-100.6445 h 28.627 v 244.94919 h -30.9356 v -190.59379 l -66.1816,94.68363 h -5.6934 l -66.7969,-94.68363 v 190.59379 h -30.7832 z m 246.8731,0 h 56.3301 c 4.4377,0 8.6317,0.1723 12.582,0.5156 3.9504,0.3432 7.6562,0.8582 11.1191,1.5449 3.463,0.6868 6.6827,1.5461 9.6582,2.5762 2.9757,1.0301 5.7091,2.232 8.1973,3.6055 2.48822,1.3442 4.82827,2.8204 7.02149,4.4277 2.19322,1.6072 4.23849,3.3445 6.13672,5.2148 1.89819,1.8703 3.64875,3.8726 5.25195,6.0059 1.60324,2.1333 3.05894,4.3986 4.36719,6.7949 1.30824,2.3671 2.45243,4.8277 3.43359,7.3848 0.98117,2.557 1.799,5.2101 2.45313,7.957 0.65408,2.747 1.14557,5.5885 1.47265,8.5254 0.32693,2.9369 0.49024,5.9688 0.49024,9.0957 0,3.01 -0.17005,5.9127 -0.51172,8.709 -0.34167,2.7963 -0.85415,5.4858 -1.53711,8.0683 -0.683,2.5826 -1.53607,5.0589 -2.56055,7.4278 -1.02448,2.3689 -2.21998,4.6299 -3.58594,6.78514 -1.36596,2.1552 -2.90193,4.20498 -4.60937,6.14648 -1.70744,1.94151 -3.58585,3.7761 -5.63477,5.50391 -2.04892,1.72781 -4.26975,3.34917 -6.66015,4.86328 -2.39044,1.51412 -4.95168,2.92028 -7.68355,4.22071 3.92469,0.84748 7.64725,1.94284 11.16792,3.2871 3.52071,1.34427 6.84036,2.93826 9.95703,4.7793 3.11668,1.84105 6.0315,3.92975 8.74414,6.26758 2.71268,2.33786 5.22264,4.92512 7.53125,7.75977 2.33432,2.83464 4.3762,5.80767 6.12696,8.91992 1.75071,3.11225 3.20983,6.36205 4.37695,9.75195 1.16716,3.38986 2.04339,6.91844 2.62695,10.58594 0.5836,3.6675 0.875,7.47481 0.875,11.41992 0,3.12688 -0.17651,6.17007 -0.52929,9.12891 -0.35263,2.9588 -0.88053,5.83224 -1.58594,8.62304 -0.70545,2.79081 -1.58833,5.49833 -2.64649,8.1211 -1.05811,2.62276 -2.2923,5.16246 -3.70312,7.61718 -1.41086,2.45473 -2.98813,4.79518 -4.73242,7.02344 -1.74433,2.22826 -3.65658,4.34392 -5.73438,6.34571 -2.07775,2.00178 -4.32116,3.89073 -6.73242,5.66601 -2.41126,1.77532 -4.98964,3.43752 -7.73437,4.98633 -2.71907,1.54881 -5.61044,2.90285 -8.67579,4.06445 -3.06538,1.1616 -6.30513,2.12987 -9.71678,2.9043 -3.4117,0.77439 -6.996,1.35497 -10.7539,1.74219 -3.758,0.38721 -7.6887,0.58203 -11.793,0.58203 h -72.7988 z"
               id="rect1004"
               transform="scale(0.26458333)" />
          </g>
          <path
             d="m -346.87343,-249.50659 a 4.0324717,4.215766 0 0 1 -3.1483,4.9711 4.0324717,4.215766 0 0 1 -4.75498,-3.29138 4.0324717,4.215766 0 0 1 3.14826,-4.97113 4.0324717,4.215766 0 0 1 4.75501,3.29134"
             sodipodi:open="true"
             sodipodi:end="6.0826121"
             sodipodi:start="6.0826295"
             sodipodi:ry="4.215766"
             sodipodi:rx="4.0324717"
             sodipodi:cy="-248.66675"
             sodipodi:cx="-350.82507"
             sodipodi:type="arc"
             id="path1092"
             style="opacity:0.997;fill:#fb5a3d;fill-opacity:1;stroke:none;stroke-width:1.08446825;stroke-linecap:round;stroke-linejoin:round;stroke-miterlimit:4;stroke-dasharray:none;stroke-opacity:1" />
        </g>
        <text
           inkscape:export-ydpi="207.95"
           inkscape:export-xdpi="207.95"
           inkscape:export-filename="D:\Internet Business\JCMoneyBusiness\images\Placeholder_1.png"
           xml:space="preserve"
           style="font-style:normal;font-variant:normal;font-weight:normal;font-stretch:normal;font-size:15.875px;line-height:1.25;font-family:'Gill Sans MT';-inkscape-font-specification:'Gill Sans MT, Normal';font-variant-ligatures:normal;font-variant-caps:normal;font-variant-numeric:normal;font-feature-settings:normal;text-align:start;letter-spacing:0px;word-spacing:0px;writing-mode:lr-tb;text-anchor:start;fill:#ffffff;fill-opacity:1;stroke:none;stroke-width:0.26458332"
           x="-559.13617"
           y="-222.08589"
           id="text1103"><tspan
             sodipodi:role="line"
             id="tspan1101"
             x="-559.13617"
             y="-222.08589"
             style="font-style:normal;font-variant:normal;font-weight:normal;font-stretch:normal;font-size:15.875px;font-family:'Gill Sans MT';-inkscape-font-specification:'Gill Sans MT, Normal';font-variant-ligatures:normal;font-variant-caps:normal;font-variant-numeric:normal;font-feature-settings:normal;text-align:start;writing-mode:lr-tb;text-anchor:start;fill:#ffffff;fill-opacity:1;stroke-width:0.26458332">Coming Soon. </tspan></text>
      </g>
      <path
         inkscape:export-ydpi="205.45"
         inkscape:export-xdpi="205.45"
         inkscape:export-filename="D:\Internet Business\JCMoneyBusiness\images\front.png"
         d="m -392.27336,-211.17942 a 4.3056836,4.520968 0 0 1 -3.36161,5.33099 4.3056836,4.520968 0 0 1 -5.07714,-3.52967 4.3056836,4.520968 0 0 1 3.36157,-5.33102 4.3056836,4.520968 0 0 1 5.07717,3.52962"
         sodipodi:open="true"
         sodipodi:end="6.0826121"
         sodipodi:start="6.0826295"
         sodipodi:ry="4.520968"
         sodipodi:rx="4.3056836"
         sodipodi:cy="-210.27878"
         sodipodi:cx="-396.49274"
         sodipodi:type="arc"
         id="path1319"
         style="opacity:0.997;fill:#ffffff;fill-opacity:1;stroke:none;stroke-width:1.03399992;stroke-linecap:round;stroke-linejoin:round;stroke-miterlimit:4;stroke-dasharray:none;stroke-opacity:1" />
      <rect
         style="opacity:0.997;fill:#fb5a3d;fill-opacity:1;stroke:none;stroke-width:1.0224359;stroke-linecap:round;stroke-linejoin:round;stroke-miterlimit:4;stroke-dasharray:none;stroke-opacity:1"
         id="rect1694"
         width="375.7016"
         height="103.22002"
         x="-684.45959"
         y="-123.52545"
         inkscape:export-filename="D:\Internet Business\JCMoneyBusiness\images\front.png"
         inkscape:export-xdpi="205.45"
         inkscape:export-ydpi="205.45" />
      <rect
         style="opacity:0.997;fill:#fb5a3d;fill-opacity:1;stroke:none;stroke-width:0.4481537;stroke-linecap:round;stroke-linejoin:round;stroke-miterlimit:4;stroke-dasharray:none;stroke-opacity:1"
         id="rect1694-9"
         width="375.70163"
         height="19.831049"
         x="-684.50659"
         y="-316.12943"
         inkscape:export-filename="D:\Internet Business\JCMoneyBusiness\images\front.png"
         inkscape:export-xdpi="205.45"
         inkscape:export-ydpi="205.45" />
    </g>
    <g
       id="g1540"
       transform="matrix(1.0264888,-0.72913474,0.61586738,1.2152757,258.51653,-262.30636)"
       inkscape:export-filename="D:\Internet Business\JCMoneyBusiness\images\back2.png"
       inkscape:export-xdpi="164.25"
       inkscape:export-ydpi="164.25">
      <path
         inkscape:export-ydpi="164.25"
         inkscape:export-xdpi="164.25"
         inkscape:export-filename="D:\Internet Business\JCMoneyBusiness\images\back2.png"
         inkscape:connector-curvature="0"
         id="path1335"
         d="m -504.43337,-219.72803 c 0,0 -5.02921,6.91961 -18.65314,4.00937 -13.62393,-2.91024 -79.29136,-39.89883 -35.93254,-117.2942 43.35884,-77.39535 38.93284,57.30048 68.26528,30.99533 29.33246,-26.30514 -66.07309,-97.70987 -30.93114,-81.61391 35.14195,16.09594 67.23178,-0.18058 64.51583,72.03483 -2.71591,72.21541 -42.90087,21.70594 -61.05801,21.05891 -18.15717,-0.647 -5.38308,38.56453 31.76712,45.73489 37.15018,7.17035 -17.9734,25.07478 -17.9734,25.07478 z"
         style="fill:#f4a0a0;fill-opacity:1;stroke:none;stroke-width:0.23385255px;stroke-linecap:butt;stroke-linejoin:miter;stroke-opacity:1" />
      <path
         inkscape:export-ydpi="164.25"
         inkscape:export-xdpi="164.25"
         inkscape:export-filename="D:\Internet Business\JCMoneyBusiness\images\back2.png"
         inkscape:connector-curvature="0"
         id="path1335-6-4-6"
         d="m -502.80535,-218.99129 c 0,0 -4.88766,6.94802 -18.10348,4.00727 -13.2158,-2.94076 -76.88998,-40.19029 -34.73139,-117.91845 42.15862,-77.72817 37.71084,57.63064 66.20167,31.22959 28.49083,-26.40104 -63.99869,-98.27252 -29.91921,-82.05526 34.07946,16.21724 65.23434,-0.10218 62.51691,72.46828 -2.71741,72.57045 -41.65088,21.76302 -59.26779,21.09137 -17.61693,-0.67164 -5.26703,38.74947 30.77118,45.99923 36.03818,7.24974 -17.46789,25.17797 -17.46789,25.17797 z"
         style="fill:#fc5d62;fill-opacity:1;stroke:none;stroke-width:0.23092294px;stroke-linecap:butt;stroke-linejoin:miter;stroke-opacity:1" />
      <path
         inkscape:export-ydpi="164.25"
         inkscape:export-xdpi="164.25"
         inkscape:export-filename="D:\Internet Business\JCMoneyBusiness\images\back2.png"
         inkscape:connector-curvature="0"
         id="path1335-6-4-6-5"
         d="m -499.66128,-219.09835 c 0,0 -4.60236,6.9383 -17.00304,3.96979 -12.40066,-2.96851 -72.10102,-40.35337 -32.36747,-117.99895 39.73357,-77.64559 35.28578,57.71323 62.08519,31.36977 26.79942,-26.34344 -59.88221,-98.4127 -27.92211,-82.12327 31.96009,16.28941 61.24014,0.0338 58.54309,72.6036 -2.69703,72.56976 -39.14432,21.67767 -55.68117,20.96924 -16.53684,-0.70842 -5.02248,38.74114 28.79446,46.06654 33.81692,7.32538 -16.44895,25.14328 -16.44895,25.14328 z"
         style="fill:#fccc5d;fill-opacity:1;stroke:none;stroke-width:0.22374953px;stroke-linecap:butt;stroke-linejoin:miter;stroke-opacity:1" />
      <path
         inkscape:export-ydpi="164.25"
         inkscape:export-xdpi="164.25"
         inkscape:export-filename="D:\Internet Business\JCMoneyBusiness\images\back2.png"
         inkscape:connector-curvature="0"
         id="path1335-6-4-6-5-5"
         d="m -495.56856,-218.39417 c 0,0 -4.60236,6.9383 -17.00303,3.96979 -12.40067,-2.96851 -72.10102,-40.35337 -32.36748,-117.99895 39.73356,-77.64559 35.28578,57.71322 62.0852,31.36977 26.79941,-26.34345 -59.88222,-98.4127 -27.9221,-82.12327 31.96008,16.28941 61.24012,0.0338 58.54307,72.6036 -2.69703,72.56976 -39.14432,21.67767 -55.68117,20.96924 -16.53685,-0.70843 -5.02246,38.74114 28.79446,46.06654 33.81692,7.32538 -16.44895,25.14328 -16.44895,25.14328 z"
         style="fill:#fdea83;fill-opacity:1;stroke:none;stroke-width:0.22374953px;stroke-linecap:butt;stroke-linejoin:miter;stroke-opacity:1" />
      <path
         inkscape:export-ydpi="164.25"
         inkscape:export-xdpi="164.25"
         inkscape:export-filename="D:\Internet Business\JCMoneyBusiness\images\back2.png"
         inkscape:connector-curvature="0"
         id="path1335-6-4-6-5-5-7"
         d="m -491.0305,-217.70516 c 0,0 -4.51676,6.93538 -16.67289,3.95855 -12.15613,-2.97684 -70.66434,-40.40229 -31.6583,-118.0231 39.00604,-77.62081 34.55826,57.738 60.85025,31.41182 26.29198,-26.32616 -58.64727,-98.45475 -27.32298,-82.14367 31.32428,16.31106 60.04187,0.0746 57.35093,72.6442 -2.69092,72.56955 -38.39234,21.65206 -54.60518,20.93259 -16.21282,-0.71945 -4.9491,38.73865 28.20144,46.08674 33.15054,7.34807 -16.14327,25.13287 -16.14327,25.13287 z"
         style="fill:#044d82;fill-opacity:1;stroke:none;stroke-width:0.22155225px;stroke-linecap:butt;stroke-linejoin:miter;stroke-opacity:1" />
    </g>
  </g>
</svg>
